<svg width="32" height="32" viewBox="0 0 32 32" fill="none" xmlns="http://www.w3.org/2000/svg">
<path d="M6.97363 27C6.97363 26.4477 6.52592 26 5.97363 26C5.42135 26 4.97363 26.4477 4.97363 27H5.97363H6.97363ZM8.6403 3V2V3ZM21.579 3.94134L20.8706 4.64717L20.8719 4.64844L21.579 3.94134ZM26.363 8.72534L25.6559 9.43245L25.658 9.43455L26.363 8.72534ZM20.6403 11V10V10V11ZM4.97363 10.8334C4.97363 11.3857 5.42135 11.8334 5.97363 11.8334C6.52592 11.8334 6.97363 11.3857 6.97363 10.8334H5.97363H4.97363ZM8.6403 29.6667V28.6667C8.19827 28.6667 7.77435 28.4911 7.46179 28.1785L6.75468 28.8856L6.04757 29.5927C6.73521 30.2804 7.66784 30.6667 8.6403 30.6667V29.6667ZM6.75468 28.8856L7.46179 28.1785C7.14923 27.866 6.97363 27.442 6.97363 27H5.97363H4.97363C4.97363 27.9725 5.35994 28.9051 6.04757 29.5927L6.75468 28.8856ZM5.97363 5.66667H6.97363C6.97363 5.22464 7.14923 4.80072 7.46179 4.48816L6.75468 3.78105L6.04757 3.07395C5.35994 3.76158 4.97363 4.69421 4.97363 5.66667H5.97363ZM6.75468 3.78105L7.46179 4.48816C7.77435 4.1756 8.19827 4 8.6403 4V3V2C7.66784 2 6.73521 2.38631 6.04757 3.07395L6.75468 3.78105ZM8.6403 3V4H19.307V3V2H8.6403V3ZM19.307 3L19.3086 4C19.5988 3.99953 19.8862 4.05647 20.1542 4.16754L20.537 3.2437L20.9198 2.31985C20.408 2.10781 19.8593 1.99911 19.3053 2.00001L19.307 3ZM20.537 3.2437L20.1542 4.16754C20.4223 4.27861 20.6658 4.44162 20.8706 4.64717L21.579 3.94134L22.2873 3.23551C21.8963 2.84308 21.4316 2.53189 20.9198 2.31985L20.537 3.2437ZM21.579 3.94134L20.8719 4.64844L25.6559 9.43244L26.363 8.72534L27.0701 8.01823L22.2861 3.23423L21.579 3.94134ZM26.363 8.72534L25.658 9.43455C25.8641 9.63943 26.0275 9.88311 26.1389 10.1515L27.0626 9.76822L27.9862 9.38491C27.7735 8.87248 27.4614 8.40727 27.068 8.01613L26.363 8.72534ZM27.0626 9.76822L26.1389 10.1515C26.2503 10.4199 26.3074 10.7078 26.307 10.9984L27.307 11L28.307 11.0016C28.3079 10.4468 28.1988 9.89734 27.9862 9.38491L27.0626 9.76822ZM27.307 11H26.307V27H27.307H28.307V11H27.307ZM27.307 27H26.307C26.307 27.442 26.1314 27.866 25.8188 28.1785L26.5259 28.8856L27.233 29.5927C27.9207 28.9051 28.307 27.9725 28.307 27H27.307ZM26.5259 28.8856L25.8188 28.1785C25.5063 28.4911 25.0823 28.6667 24.6403 28.6667V29.6667V30.6667C25.6128 30.6667 26.5454 30.2804 27.233 29.5927L26.5259 28.8856ZM24.6403 29.6667V28.6667H8.6403V29.6667V30.6667H24.6403V29.6667ZM19.307 3H18.307V9.66667H19.307H20.307V3H19.307ZM19.307 9.66667H18.307C18.307 10.2855 18.5528 10.879 18.9904 11.3166L19.6975 10.6095L20.4046 9.90237C20.3421 9.83986 20.307 9.75508 20.307 9.66667H19.307ZM19.6975 10.6095L18.9904 11.3166C19.428 11.7542 20.0215 12 20.6403 12V11V10C20.5519 10 20.4671 9.96489 20.4046 9.90237L19.6975 10.6095ZM20.6403 11V12L27.307 12V11V10L20.6403 10V11ZM5.97363 10.8334H6.97363V5.66667H5.97363H4.97363V10.8334H5.97363Z" fill="#334155"/>
<path d="M23.24 20.8334C23.24 21.717 22.5237 22.4333 21.6401 22.4333H21.1801C20.0755 22.4333 19.1801 21.5379 19.1801 20.4333V17.9333C19.1801 16.8288 20.0755 15.9333 21.1801 15.9333H21.64C22.5237 15.9333 23.24 16.6497 23.24 17.5334M4.04004 22.2334V16.1333C4.04004 16.0229 4.12958 15.9333 4.24004 15.9333H6.54004C7.64461 15.9333 8.54004 16.8288 8.54004 17.9333V20.4333C8.54004 21.5379 7.64461 22.4333 6.54004 22.4333H4.24004C4.12958 22.4333 4.04004 22.3438 4.04004 22.2334ZM11.6801 20.4333V17.9333C11.6801 16.8288 12.5755 15.9333 13.6801 15.9333H14.1801C15.2846 15.9333 16.1801 16.8288 16.1801 17.9333V20.4333C16.1801 21.5379 15.2846 22.4333 14.1801 22.4333H13.6801C12.5755 22.4333 11.6801 21.5379 11.6801 20.4333Z" stroke="#185DC1" stroke-width="2" stroke-linecap="round"/>
</svg>
