<svg width="148" height="32" viewBox="0 0 148 32" fill="none" xmlns="http://www.w3.org/2000/svg">
<path d="M29.2588 16.2849L19.5762 31.7683L18.3154 30.9792L17.0547 31.7683L7.37207 16.2849L11.4443 13.738L18.3154 24.7253L25.1865 13.738L29.2588 16.2849Z" fill="url(#paint0_linear_21_1509)"/>
<rect x="6.64551" y="13.7383" width="4.80279" height="18.2618" fill="#BAAE8D"/>
<rect x="33.6748" y="6.8692" width="4.80279" height="30.6597" transform="rotate(90 33.6748 6.8692)" fill="#BAAE8D"/>
<rect x="36.6914" width="4.80279" height="36.6911" transform="rotate(90 36.6914 0)" fill="#BAAE8D"/>
<rect x="15.916" y="16.363" width="4.80279" height="15.637" fill="#BAAE8D"/>
<rect x="25.1865" y="13.7383" width="4.80279" height="18.2618" fill="#BAAE8D"/>
<path d="M127.598 31.6472L127.483 30.5212L130.08 29.9926L129.046 31.0267C129.061 30.9501 129.1 30.8046 129.161 30.5901C129.238 30.3603 129.314 30.0999 129.391 29.8088C129.467 29.5177 129.536 29.2496 129.598 29.0045C129.659 28.7441 129.689 28.5526 129.689 28.43L130.287 18.4108C130.302 18.2423 130.295 17.9895 130.264 17.6525C130.249 17.3154 130.226 16.9707 130.195 16.6184C130.164 16.266 130.134 15.9903 130.103 15.7911L130.999 16.8022L128.288 16.4116L128.403 15.2166C128.694 15.2319 129.015 15.2473 129.368 15.2626C129.72 15.2779 130.049 15.2932 130.356 15.3085C130.678 15.3239 130.907 15.3315 131.045 15.3315H132.769L133.205 15.8141C133.359 16.243 133.519 16.7103 133.688 17.2159C133.856 17.7214 134.01 18.1733 134.148 18.5717C134.285 18.97 134.377 19.2381 134.423 19.376L137.824 28.3151H137.25L140.697 19.2151C140.758 19.0925 140.858 18.8398 140.996 18.4568C141.133 18.0738 141.287 17.6372 141.455 17.1469C141.639 16.6567 141.8 16.2047 141.938 15.7911L142.397 15.3315H142.857C143.454 15.3315 144.06 15.3162 144.672 15.2856C145.3 15.2549 145.898 15.2319 146.465 15.2166L146.557 16.5265L143.914 16.7563L144.718 16.0439C144.703 16.6567 144.688 17.2695 144.672 17.8823C144.657 18.4951 144.657 18.9087 144.672 19.1232L145.339 27.7406C145.354 27.8479 145.385 28.047 145.431 28.3381C145.477 28.6138 145.53 28.9279 145.591 29.2803C145.668 29.6173 145.737 29.9467 145.798 30.2684C145.86 30.5901 145.913 30.8429 145.959 31.0267L144.994 30.0846L147.683 30.3144L147.522 31.5323H144.58C144.397 31.5323 144.121 31.5399 143.753 31.5553C143.401 31.5706 143.025 31.5859 142.627 31.6012C142.229 31.6165 141.853 31.6319 141.501 31.6472L141.386 30.5212L143.96 29.9926L143.018 31.0267C143.048 30.8888 143.087 30.6514 143.133 30.3144C143.194 29.962 143.24 29.6096 143.271 29.2573C143.316 28.8896 143.332 28.6138 143.316 28.43L142.604 17.2159L142.926 17.2618L137.549 31.5323H136.813L131.436 17.2618L131.758 17.2159L131.16 27.7406C131.145 27.9244 131.145 28.1849 131.16 28.5219C131.175 28.8436 131.191 29.1807 131.206 29.533C131.237 29.8854 131.267 30.1995 131.298 30.4752C131.329 30.751 131.352 30.9348 131.367 31.0267L130.494 30.0846L133.159 30.3144L132.999 31.5323H130.379C130.226 31.5323 129.988 31.5399 129.666 31.5553C129.345 31.5706 128.992 31.5859 128.609 31.6012C128.242 31.6165 127.905 31.6319 127.598 31.6472Z" fill="#4E493B"/>
<path d="M117.345 31.877C115.399 31.877 113.936 31.2948 112.956 30.1305C111.975 28.9509 111.485 27.3806 111.485 25.4197V18.5487C111.485 18.3802 111.462 18.1274 111.416 17.7904C111.37 17.438 111.317 17.078 111.255 16.7103C111.209 16.3426 111.163 16.0592 111.117 15.86L112.06 16.8022L109.417 16.4116L109.532 15.2166C109.823 15.2319 110.145 15.2473 110.497 15.2626C110.849 15.2779 111.179 15.2932 111.485 15.3085C111.807 15.3239 112.037 15.3315 112.175 15.3315C112.45 15.3315 112.795 15.3239 113.209 15.3085C113.638 15.2932 114.059 15.2779 114.473 15.2626C114.886 15.2473 115.216 15.2319 115.461 15.2166L115.553 16.5265L112.933 16.7563L113.783 15.86C113.768 16.0286 113.737 16.3043 113.691 16.6873C113.661 17.0703 113.63 17.4916 113.599 17.9512C113.569 18.4108 113.553 18.8398 113.553 19.2381V25.4197C113.553 26.4001 113.699 27.2734 113.99 28.0394C114.281 28.8053 114.725 29.4105 115.323 29.8548C115.92 30.2837 116.663 30.4982 117.552 30.4982C118.486 30.4982 119.252 30.2761 119.85 29.8318C120.463 29.3875 120.922 28.7824 121.229 28.0164C121.535 27.2504 121.688 26.3848 121.688 25.4197V18.5487C121.688 18.4261 121.673 18.2346 121.642 17.9742C121.612 17.7138 121.573 17.438 121.527 17.1469C121.481 16.8405 121.435 16.5724 121.389 16.3426C121.359 16.0975 121.336 15.9366 121.321 15.86L122.332 16.8252L119.643 16.4116L119.758 15.2166C120.187 15.2319 120.639 15.2549 121.114 15.2856C121.589 15.3162 121.941 15.3315 122.171 15.3315C122.661 15.3315 123.174 15.3162 123.71 15.2856C124.247 15.2549 124.729 15.2319 125.158 15.2166L125.25 16.5265L122.63 16.7563L123.481 15.86C123.465 16.0286 123.435 16.3043 123.389 16.6873C123.358 17.0703 123.327 17.4916 123.297 17.9512C123.266 18.4108 123.251 18.8398 123.251 19.2381V25.4197C123.251 27.3806 122.753 28.9509 121.757 30.1305C120.777 31.2948 119.306 31.877 117.345 31.877Z" fill="#4E493B"/>
<path d="M95.3317 31.6472L95.2168 30.5212L97.8365 29.9926L96.9173 31.0037C96.9479 30.8352 96.9862 30.5824 97.0322 30.2454C97.0935 29.8931 97.1471 29.5407 97.1931 29.1883C97.239 28.836 97.262 28.5832 97.262 28.43V18.4338C97.262 18.2959 97.239 18.0814 97.1931 17.7904C97.1624 17.484 97.1241 17.1622 97.0782 16.8252C97.0322 16.4728 96.9862 16.1511 96.9403 15.86L97.8365 16.8252L95.2628 16.4116L95.3777 15.2166C95.6687 15.2319 95.9905 15.2473 96.3428 15.2626C96.6952 15.2779 97.0245 15.2932 97.3309 15.3085C97.6527 15.3239 97.8825 15.3315 98.0203 15.3315H103.145C103.283 15.3315 103.505 15.3315 103.811 15.3315C104.118 15.3162 104.447 15.3009 104.799 15.2856C105.152 15.2549 105.473 15.2319 105.765 15.2166L106.201 15.6303L106.362 18.6176L105.052 18.7325L104.799 17.4686C104.784 17.3461 104.677 17.1546 104.478 16.8941C104.279 16.6337 104.095 16.4269 103.926 16.2737L104.684 16.7103C104.455 16.6797 104.125 16.649 103.696 16.6184C103.283 16.5877 102.869 16.5724 102.455 16.5724H98.6408L99.491 15.9749C99.4604 16.3273 99.4221 16.7103 99.3761 17.1239C99.3302 17.5376 99.2919 17.9282 99.2612 18.2959C99.2459 18.6483 99.2383 18.924 99.2383 19.1232V27.7406C99.2383 28.1236 99.2536 28.5449 99.2842 29.0045C99.3149 29.4641 99.3532 29.8931 99.3991 30.2914C99.4451 30.6897 99.491 31.0037 99.537 31.2335L98.5948 30.2684H102.754C103.214 30.2684 103.666 30.2378 104.11 30.1765C104.57 30.0999 104.899 30.0386 105.098 29.9926L104.409 30.5441C104.577 30.3297 104.753 30.0999 104.937 29.8548C105.121 29.5943 105.228 29.3875 105.259 29.2343L105.604 27.6717L106.845 27.7866L106.5 31.2106L106.063 31.6242C105.772 31.6089 105.443 31.5936 105.075 31.5782C104.723 31.5629 104.393 31.5476 104.087 31.5323C103.796 31.5323 103.581 31.5323 103.444 31.5323H98.411C98.2272 31.5323 97.9591 31.5323 97.6067 31.5323C97.2543 31.5476 96.8713 31.5629 96.4577 31.5782C96.0594 31.5936 95.6841 31.6165 95.3317 31.6472ZM103.581 25.4197L103.26 23.0298L104.087 23.9719C103.918 23.9413 103.666 23.9106 103.329 23.88C103.007 23.834 102.67 23.7957 102.318 23.7651C101.981 23.7345 101.712 23.7191 101.513 23.7191H98.5948V22.4782H101.973C102.295 22.4782 102.67 22.4476 103.099 22.3863C103.528 22.3097 103.819 22.2638 103.972 22.2484L103.26 23.1676L103.581 20.7547L104.593 20.8696V22.8C104.593 23.6272 104.616 24.4545 104.661 25.2818L103.581 25.4197Z" fill="#4E493B"/>
<path d="M86.9271 31.8772C85.8088 31.8772 84.7976 31.7393 83.8938 31.4635C82.9899 31.1878 82.3235 30.9197 81.8945 30.6592L82.2392 27.1893L83.7329 27.3272V28.3842C83.7329 28.4608 83.7406 28.591 83.7559 28.7749C83.7865 28.9434 83.8172 29.1349 83.8478 29.3494C83.8785 29.5485 83.9091 29.74 83.9397 29.9239C83.9857 30.0924 84.024 30.2226 84.0546 30.3145L83.641 29.786C84.0393 29.9852 84.5295 30.169 85.1117 30.3375C85.7092 30.4907 86.3373 30.5673 86.9961 30.5673C87.9459 30.5673 88.6966 30.3145 89.2481 29.809C89.7996 29.2881 90.0753 28.5604 90.0753 27.6259C90.0753 26.9825 89.8838 26.4463 89.5008 26.0173C89.1179 25.573 88.6276 25.1824 88.0301 24.8453C87.4327 24.493 86.7969 24.1559 86.1228 23.8342C85.4641 23.5125 84.8359 23.1525 84.2385 22.7542C83.641 22.3405 83.1508 21.8503 82.7678 21.2835C82.3848 20.7166 82.1933 20.0272 82.1933 19.2153C82.1933 18.2961 82.4077 17.5224 82.8367 16.8943C83.281 16.2662 83.8785 15.7913 84.6291 15.4696C85.3798 15.1479 86.2224 14.987 87.1569 14.987C87.9076 14.987 88.6812 15.0636 89.4779 15.2168C90.2745 15.37 91.0405 15.5385 91.7759 15.7224L91.4541 19.1234L90.1213 18.9625V17.9974C90.1213 17.8901 90.0983 17.7293 90.0524 17.5148C90.0064 17.285 89.9528 17.0475 89.8915 16.8024C89.8302 16.542 89.7689 16.3122 89.7077 16.113L90.3511 16.9633C89.6923 16.6109 89.1332 16.3964 88.6736 16.3198C88.214 16.2279 87.6701 16.1819 87.042 16.1819C86.3373 16.1819 85.7168 16.4041 85.1806 16.8484C84.6598 17.2773 84.3993 17.9208 84.3993 18.7787C84.3993 19.3915 84.5908 19.9123 84.9738 20.3413C85.3568 20.7549 85.8547 21.1379 86.4675 21.4903C87.0803 21.8273 87.7237 22.1644 88.3978 22.5014C89.0719 22.8384 89.7153 23.2214 90.3281 23.6504C90.9409 24.0793 91.4388 24.5926 91.8218 25.19C92.2048 25.7875 92.3963 26.5229 92.3963 27.3961C92.3963 28.4072 92.1512 29.2421 91.661 29.9009C91.1707 30.5597 90.512 31.0575 89.6847 31.3946C88.8574 31.7163 87.9382 31.8772 86.9271 31.8772Z" fill="#4E493B"/>
<path d="M71.2952 31.877C69.3496 31.877 67.8866 31.2948 66.9061 30.1305C65.9256 28.9509 65.4354 27.3806 65.4354 25.4197V18.5487C65.4354 18.3802 65.4124 18.1274 65.3664 17.7904C65.3205 17.438 65.2669 17.078 65.2056 16.7103C65.1596 16.3426 65.1137 16.0592 65.0677 15.86L66.0099 16.8022L63.3672 16.4116L63.4821 15.2166C63.7732 15.2319 64.0949 15.2473 64.4472 15.2626C64.7996 15.2779 65.129 15.2932 65.4354 15.3085C65.7571 15.3239 65.9869 15.3315 66.1248 15.3315C66.4005 15.3315 66.7452 15.3239 67.1589 15.3085C67.5878 15.2932 68.0091 15.2779 68.4227 15.2626C68.8364 15.2473 69.1658 15.2319 69.4109 15.2166L69.5028 16.5265L66.8831 16.7563L67.7334 15.86C67.718 16.0286 67.6874 16.3043 67.6414 16.6873C67.6108 17.0703 67.5802 17.4916 67.5495 17.9512C67.5189 18.4108 67.5036 18.8398 67.5036 19.2381V25.4197C67.5036 26.4001 67.6491 27.2734 67.9402 28.0394C68.2312 28.8053 68.6755 29.4105 69.273 29.8548C69.8705 30.2837 70.6135 30.4982 71.502 30.4982C72.4366 30.4982 73.2025 30.2761 73.8 29.8318C74.4128 29.3875 74.8724 28.7824 75.1788 28.0164C75.4852 27.2504 75.6384 26.3848 75.6384 25.4197V18.5487C75.6384 18.4261 75.6231 18.2346 75.5924 17.9742C75.5618 17.7138 75.5235 17.438 75.4775 17.1469C75.4316 16.8405 75.3856 16.5724 75.3397 16.3426C75.309 16.0975 75.2861 15.9366 75.2707 15.86L76.2818 16.8252L73.5932 16.4116L73.7081 15.2166C74.1371 15.2319 74.589 15.2549 75.0639 15.2856C75.5388 15.3162 75.8912 15.3315 76.121 15.3315C76.6112 15.3315 77.1244 15.3162 77.6606 15.2856C78.1968 15.2549 78.6794 15.2319 79.1084 15.2166L79.2003 16.5265L76.5806 16.7563L77.4308 15.86C77.4155 16.0286 77.3849 16.3043 77.3389 16.6873C77.3083 17.0703 77.2776 17.4916 77.247 17.9512C77.2164 18.4108 77.201 18.8398 77.201 19.2381V25.4197C77.201 27.3806 76.7031 28.9509 75.7073 30.1305C74.7269 31.2948 73.2562 31.877 71.2952 31.877Z" fill="#4E493B"/>
<path d="M41.0876 31.6472L40.9727 30.5212L43.5694 29.9926L42.5353 31.0267C42.5506 30.9501 42.5889 30.8046 42.6502 30.5901C42.7268 30.3603 42.8034 30.0999 42.88 29.8088C42.9566 29.5177 43.0255 29.2496 43.0868 29.0045C43.1481 28.7441 43.1787 28.5526 43.1787 28.43L43.7762 18.4108C43.7915 18.2423 43.7839 17.9895 43.7532 17.6525C43.7379 17.3154 43.7149 16.9707 43.6843 16.6184C43.6536 16.266 43.623 15.9903 43.5924 15.7911L44.4886 16.8022L41.7769 16.4116L41.8918 15.2166C42.1829 15.2319 42.5046 15.2473 42.857 15.2626C43.2094 15.2779 43.5387 15.2932 43.8451 15.3085C44.1669 15.3239 44.3966 15.3315 44.5345 15.3315H46.258L46.6946 15.8141C46.8478 16.243 47.0087 16.7103 47.1772 17.2159C47.3457 17.7214 47.4989 18.1733 47.6368 18.5717C47.7747 18.97 47.8666 19.2381 47.9126 19.376L51.3136 28.3151H50.7391L54.186 19.2151C54.2473 19.0925 54.3469 18.8398 54.4848 18.4568C54.6227 18.0738 54.7759 17.6372 54.9444 17.1469C55.1282 16.6567 55.2891 16.2047 55.427 15.7911L55.8866 15.3315H56.3462C56.9436 15.3315 57.5488 15.3162 58.1616 15.2856C58.7897 15.2549 59.3871 15.2319 59.954 15.2166L60.0459 16.5265L57.4032 16.7563L58.2075 16.0439C58.1922 16.6567 58.1769 17.2695 58.1616 17.8823C58.1462 18.4951 58.1462 18.9087 58.1616 19.1232L58.828 27.7406C58.8433 27.8479 58.8739 28.047 58.9199 28.3381C58.9658 28.6138 59.0195 28.9279 59.0807 29.2803C59.1573 29.6173 59.2263 29.9467 59.2876 30.2684C59.3488 30.5901 59.4025 30.8429 59.4484 31.0267L58.4833 30.0846L61.1719 30.3144L61.0111 31.5323H58.0696C57.8858 31.5323 57.61 31.5399 57.2424 31.5553C56.89 31.5706 56.5147 31.5859 56.1164 31.6012C55.718 31.6165 55.3427 31.6319 54.9903 31.6472L54.8754 30.5212L57.4492 29.9926L56.507 31.0267C56.5377 30.8888 56.5759 30.6514 56.6219 30.3144C56.6832 29.962 56.7291 29.6096 56.7598 29.2573C56.8057 28.8896 56.8211 28.6138 56.8057 28.43L56.0934 17.2159L56.4151 17.2618L51.0378 31.5323H50.3025L44.9252 17.2618L45.2469 17.2159L44.6494 27.7406C44.6341 27.9244 44.6341 28.1849 44.6494 28.5219C44.6647 28.8436 44.6801 29.1807 44.6954 29.533C44.726 29.8854 44.7567 30.1995 44.7873 30.4752C44.8179 30.751 44.8409 30.9348 44.8562 31.0267L43.983 30.0846L46.6487 30.3144L46.4878 31.5323H43.8681C43.7149 31.5323 43.4775 31.5399 43.1557 31.5553C42.834 31.5706 42.4817 31.5859 42.0987 31.6012C41.731 31.6165 41.394 31.6319 41.0876 31.6472Z" fill="#4E493B"/>
<defs>
<linearGradient id="paint0_linear_21_1509" x1="18.3155" y1="13.738" x2="18.3155" y2="31.7683" gradientUnits="userSpaceOnUse">
<stop stop-color="#BAAE8D" stop-opacity="0.76"/>
<stop offset="1" stop-color="#BAAE8D" stop-opacity="0"/>
</linearGradient>
</defs>
</svg>
