<svg width="32" height="32" viewBox="0 0 32 32" fill="none" xmlns="http://www.w3.org/2000/svg">
<path d="M7.33301 27C7.33301 26.4477 6.88529 26 6.33301 26C5.78072 26 5.33301 26.4477 5.33301 27H6.33301H7.33301ZM8.99967 3V2V3ZM21.9383 3.94134L21.23 4.64717L21.2312 4.64844L21.9383 3.94134ZM26.7223 8.72534L26.0152 9.43245L26.0173 9.43455L26.7223 8.72534ZM19.6663 9.66667H18.6663V9.66667H19.6663ZM20.9997 11V10V10V11ZM5.33301 10.8334C5.33301 11.3857 5.78072 11.8334 6.33301 11.8334C6.88529 11.8334 7.33301 11.3857 7.33301 10.8334H6.33301H5.33301ZM8.99967 29.6667V28.6667C8.55765 28.6667 8.13372 28.4911 7.82116 28.1785L7.11406 28.8856L6.40695 29.5927C7.09458 30.2804 8.02722 30.6667 8.99967 30.6667V29.6667ZM7.11406 28.8856L7.82116 28.1785C7.5086 27.866 7.33301 27.442 7.33301 27H6.33301H5.33301C5.33301 27.9725 5.71932 28.9051 6.40695 29.5927L7.11406 28.8856ZM6.33301 5.66667H7.33301C7.33301 5.22464 7.5086 4.80072 7.82116 4.48816L7.11406 3.78105L6.40695 3.07395C5.71932 3.76158 5.33301 4.69421 5.33301 5.66667H6.33301ZM7.11406 3.78105L7.82116 4.48816C8.13372 4.1756 8.55765 4 8.99967 4V3V2C8.02721 2 7.09458 2.38631 6.40695 3.07395L7.11406 3.78105ZM8.99967 3V4H19.6663V3V2H8.99967V3ZM19.6663 3L19.668 4C19.9581 3.99953 20.2455 4.05647 20.5136 4.16754L20.8964 3.2437L21.2791 2.31985C20.7674 2.10781 20.2187 1.99911 19.6647 2.00001L19.6663 3ZM20.8964 3.2437L20.5136 4.16754C20.7817 4.27861 21.0252 4.44162 21.23 4.64717L21.9383 3.94134L22.6467 3.23551C22.2557 2.84308 21.7909 2.53189 21.2791 2.31985L20.8964 3.2437ZM21.9383 3.94134L21.2312 4.64844L26.0152 9.43244L26.7223 8.72534L27.4295 8.01823L22.6455 3.23423L21.9383 3.94134ZM26.7223 8.72534L26.0173 9.43455C26.2234 9.63943 26.3869 9.88311 26.4983 10.1515L27.4219 9.76822L28.3456 9.38491C28.1329 8.87248 27.8208 8.40727 27.4273 8.01613L26.7223 8.72534ZM27.4219 9.76822L26.4983 10.1515C26.6097 10.4199 26.6668 10.7078 26.6663 10.9984L27.6663 11L28.6663 11.0016C28.6672 10.4468 28.5582 9.89734 28.3456 9.38491L27.4219 9.76822ZM27.6663 11H26.6663V27H27.6663H28.6663V11H27.6663ZM27.6663 27H26.6663C26.6663 27.442 26.4907 27.866 26.1782 28.1785L26.8853 28.8856L27.5924 29.5927C28.28 28.9051 28.6663 27.9725 28.6663 27H27.6663ZM26.8853 28.8856L26.1782 28.1785C25.8656 28.4911 25.4417 28.6667 24.9997 28.6667V29.6667V30.6667C25.9721 30.6667 26.9048 30.2804 27.5924 29.5927L26.8853 28.8856ZM24.9997 29.6667V28.6667H8.99967V29.6667V30.6667H24.9997V29.6667ZM19.6663 3L18.6663 3L18.6663 9.66667H19.6663H20.6663L20.6663 3L19.6663 3ZM19.6663 9.66667H18.6663C18.6663 10.2855 18.9122 10.879 19.3498 11.3166L20.0569 10.6095L20.764 9.90237C20.7015 9.83986 20.6663 9.75508 20.6663 9.66667H19.6663ZM20.0569 10.6095L19.3498 11.3166C19.7873 11.7542 20.3808 12 20.9997 12V11V10C20.9113 10 20.8265 9.96488 20.764 9.90237L20.0569 10.6095ZM20.9997 11V12L27.6663 12V11V10L20.9997 10V11ZM6.33301 10.8334H7.33301V5.66667H6.33301H5.33301V10.8334H6.33301Z" fill="#334155"/>
<path d="M4.40039 19.9333V16.7C4.40039 16.2766 4.74365 15.9333 5.16707 15.9333H7.00049C8.10506 15.9333 9.00049 16.8288 9.00049 17.9333C9.00049 19.0379 8.10506 19.9333 7.00049 19.9333H4.40039ZM4.40039 19.9333V22.4333M23.0005 15.9333H19.6004C19.4899 15.9333 19.4004 16.0229 19.4004 16.1333V19.9333M19.4004 19.9333V22.4333M19.4004 19.9333H22.0005M11.9004 22.2334V16.1333C11.9004 16.0229 11.9899 15.9333 12.1004 15.9333H14.4004C15.505 15.9333 16.4004 16.8288 16.4004 17.9333V20.4333C16.4004 21.5379 15.505 22.4333 14.4004 22.4333H12.1004C11.9899 22.4333 11.9004 22.3438 11.9004 22.2334Z" stroke="#E61A23" stroke-width="2" stroke-linecap="round"/>
</svg>
