<svg width="210" height="136" viewBox="0 0 210 136" fill="none" xmlns="http://www.w3.org/2000/svg">
<path d="M170.475 134.689L170.249 132.473L175.359 131.433L173.324 133.468C173.354 133.318 173.43 133.031 173.55 132.609C173.701 132.157 173.852 131.644 174.003 131.072C174.153 130.499 174.289 129.971 174.41 129.489C174.53 128.976 174.59 128.599 174.59 128.358L175.766 108.641C175.796 108.309 175.781 107.812 175.721 107.149C175.691 106.485 175.646 105.807 175.585 105.113C175.525 104.42 175.465 103.877 175.404 103.485L177.168 105.475L171.832 104.706L172.058 102.355C172.631 102.385 173.264 102.415 173.957 102.445C174.651 102.475 175.299 102.506 175.902 102.536C176.535 102.566 176.987 102.581 177.259 102.581H180.65L181.51 103.531C181.811 104.375 182.128 105.294 182.459 106.289C182.791 107.284 183.092 108.174 183.364 108.957C183.635 109.741 183.816 110.269 183.906 110.54L190.599 128.132H189.469L196.252 110.224C196.373 109.982 196.569 109.485 196.84 108.731C197.112 107.978 197.413 107.118 197.745 106.154C198.106 105.189 198.423 104.299 198.694 103.485L199.599 102.581H200.503C201.679 102.581 202.87 102.551 204.076 102.491C205.312 102.43 206.488 102.385 207.603 102.355L207.784 104.933L202.584 105.385L204.166 103.983C204.136 105.189 204.106 106.395 204.076 107.601C204.046 108.807 204.046 109.621 204.076 110.043L205.387 127.001C205.417 127.212 205.478 127.604 205.568 128.177C205.659 128.72 205.764 129.338 205.885 130.031C206.036 130.695 206.171 131.343 206.292 131.976C206.412 132.609 206.518 133.107 206.608 133.468L204.709 131.614L210 132.066L209.684 134.463H203.895C203.533 134.463 202.991 134.478 202.267 134.508C201.574 134.539 200.835 134.569 200.051 134.599C199.267 134.629 198.529 134.659 197.835 134.689L197.609 132.473L202.674 131.433L200.82 133.468C200.88 133.197 200.955 132.73 201.046 132.066C201.167 131.373 201.257 130.68 201.317 129.986C201.408 129.263 201.438 128.72 201.408 128.358L200.006 106.289L200.639 106.38L190.057 134.463H188.61L178.027 106.38L178.661 106.289L177.485 127.001C177.455 127.363 177.455 127.876 177.485 128.539C177.515 129.172 177.545 129.835 177.575 130.529C177.635 131.222 177.696 131.84 177.756 132.383C177.816 132.926 177.862 133.287 177.892 133.468L176.173 131.614L181.419 132.066L181.103 134.463H175.947C175.646 134.463 175.178 134.478 174.545 134.508C173.912 134.539 173.219 134.569 172.465 134.599C171.741 134.629 171.078 134.659 170.475 134.689Z" fill="#4E493B"/>
<path d="M150.295 135.142C146.466 135.142 143.587 133.996 141.658 131.705C139.728 129.383 138.763 126.293 138.763 122.434V108.912C138.763 108.581 138.718 108.083 138.628 107.42C138.537 106.726 138.432 106.018 138.311 105.294C138.221 104.571 138.13 104.013 138.04 103.621L139.894 105.475L134.693 104.706L134.919 102.355C135.492 102.385 136.125 102.415 136.819 102.445C137.512 102.475 138.16 102.506 138.763 102.536C139.397 102.566 139.849 102.581 140.12 102.581C140.663 102.581 141.341 102.566 142.155 102.536C142.999 102.506 143.828 102.475 144.642 102.445C145.456 102.415 146.105 102.385 146.587 102.355L146.768 104.933L141.612 105.385L143.286 103.621C143.256 103.953 143.195 104.495 143.105 105.249C143.045 106.003 142.984 106.832 142.924 107.736C142.864 108.641 142.834 109.485 142.834 110.269V122.434C142.834 124.363 143.12 126.082 143.693 127.589C144.266 129.097 145.14 130.288 146.316 131.162C147.491 132.006 148.954 132.428 150.702 132.428C152.541 132.428 154.049 131.991 155.225 131.117C156.431 130.242 157.335 129.052 157.938 127.544C158.541 126.037 158.842 124.333 158.842 122.434V108.912C158.842 108.671 158.812 108.294 158.752 107.782C158.692 107.269 158.616 106.726 158.526 106.154C158.435 105.551 158.345 105.023 158.255 104.571C158.194 104.088 158.149 103.772 158.119 103.621L160.109 105.52L154.818 104.706L155.044 102.355C155.888 102.385 156.777 102.43 157.712 102.491C158.647 102.551 159.34 102.581 159.792 102.581C160.757 102.581 161.767 102.551 162.822 102.491C163.877 102.43 164.827 102.385 165.671 102.355L165.852 104.933L160.697 105.385L162.37 103.621C162.34 103.953 162.279 104.495 162.189 105.249C162.129 106.003 162.068 106.832 162.008 107.736C161.948 108.641 161.918 109.485 161.918 110.269V122.434C161.918 126.293 160.938 129.383 158.978 131.705C157.049 133.996 154.154 135.142 150.295 135.142Z" fill="#4E493B"/>
<path d="M106.975 134.689L106.749 132.473L111.904 131.433L110.095 133.423C110.156 133.091 110.231 132.594 110.321 131.931C110.442 131.237 110.548 130.544 110.638 129.85C110.728 129.157 110.774 128.66 110.774 128.358V108.686C110.774 108.415 110.728 107.993 110.638 107.42C110.578 106.817 110.502 106.184 110.412 105.52C110.321 104.827 110.231 104.194 110.141 103.621L111.904 105.52L106.839 104.706L107.065 102.355C107.638 102.385 108.271 102.415 108.965 102.445C109.658 102.475 110.306 102.506 110.909 102.536C111.542 102.566 111.995 102.581 112.266 102.581H122.351C122.622 102.581 123.059 102.581 123.662 102.581C124.265 102.551 124.913 102.521 125.607 102.491C126.3 102.43 126.933 102.385 127.506 102.355L128.365 103.169L128.682 109.048L126.104 109.274L125.607 106.787C125.577 106.546 125.366 106.169 124.974 105.656C124.582 105.144 124.22 104.737 123.888 104.435L125.381 105.294C124.928 105.234 124.28 105.174 123.436 105.113C122.622 105.053 121.808 105.023 120.994 105.023H113.487L115.16 103.847C115.1 104.541 115.025 105.294 114.934 106.108C114.844 106.922 114.768 107.691 114.708 108.415C114.678 109.108 114.663 109.651 114.663 110.043V127.001C114.663 127.755 114.693 128.584 114.753 129.489C114.814 130.393 114.889 131.237 114.979 132.021C115.07 132.805 115.16 133.423 115.251 133.875L113.397 131.976H121.582C122.486 131.976 123.376 131.916 124.25 131.795C125.155 131.644 125.803 131.524 126.195 131.433L124.838 132.519C125.17 132.097 125.516 131.644 125.878 131.162C126.24 130.649 126.451 130.242 126.511 129.941L127.19 126.866L129.632 127.092L128.953 133.83L128.094 134.644C127.521 134.614 126.873 134.584 126.149 134.554C125.456 134.524 124.808 134.493 124.205 134.463C123.632 134.463 123.21 134.463 122.939 134.463H113.035C112.673 134.463 112.145 134.463 111.452 134.463C110.759 134.493 110.005 134.524 109.191 134.554C108.407 134.584 107.668 134.629 106.975 134.689ZM123.21 122.434L122.577 117.731L124.205 119.585C123.873 119.525 123.376 119.464 122.713 119.404C122.079 119.314 121.416 119.238 120.723 119.178C120.059 119.118 119.532 119.087 119.14 119.087H113.397V116.645H120.044C120.677 116.645 121.416 116.585 122.26 116.464C123.104 116.314 123.677 116.223 123.979 116.193L122.577 118.002L123.21 113.254L125.2 113.48V117.278C125.2 118.907 125.245 120.535 125.335 122.163L123.21 122.434Z" fill="#4E493B"/>
<path d="M90.4344 135.142C88.2335 135.142 86.2437 134.87 84.4649 134.328C82.6861 133.785 81.3747 133.257 80.5305 132.745L81.2089 125.916L84.1484 126.187V128.268C84.1484 128.418 84.1634 128.675 84.1936 129.036C84.2539 129.368 84.3142 129.745 84.3745 130.167C84.4348 130.559 84.4951 130.936 84.5554 131.298C84.6458 131.629 84.7212 131.885 84.7815 132.066L83.9675 131.026C84.7513 131.418 85.7161 131.78 86.8617 132.112C88.0375 132.413 89.2736 132.564 90.57 132.564C92.4393 132.564 93.9165 132.066 95.0019 131.071C96.0873 130.046 96.6299 128.614 96.6299 126.775C96.6299 125.509 96.2531 124.454 95.4993 123.61C94.7456 122.735 93.7809 121.967 92.6051 121.303C91.4293 120.61 90.1781 119.947 88.8516 119.313C87.5552 118.68 86.3191 117.972 85.1433 117.188C83.9675 116.374 83.0027 115.409 82.249 114.294C81.4953 113.178 81.1184 111.822 81.1184 110.224C81.1184 108.415 81.5405 106.892 82.3847 105.656C83.259 104.42 84.4348 103.485 85.9121 102.852C87.3894 102.219 89.0475 101.903 90.8866 101.903C92.3639 101.903 93.8864 102.053 95.4541 102.355C97.0219 102.656 98.5293 102.988 99.9764 103.35L99.3433 110.043L96.7204 109.726V107.827C96.7204 107.616 96.6752 107.299 96.5847 106.877C96.4943 106.425 96.3887 105.958 96.2681 105.475C96.1476 104.963 96.027 104.51 95.9064 104.119L97.1726 105.792C95.8762 105.098 94.7758 104.676 93.8713 104.526C92.9669 104.345 91.8966 104.254 90.6605 104.254C89.2736 104.254 88.0526 104.691 86.9974 105.566C85.9724 106.41 85.4598 107.676 85.4598 109.364C85.4598 110.57 85.8367 111.595 86.5904 112.44C87.3441 113.254 88.324 114.007 89.5299 114.701C90.7359 115.364 92.0021 116.027 93.3286 116.691C94.6552 117.354 95.9214 118.108 97.1274 118.952C98.3333 119.796 99.3132 120.806 100.067 121.982C100.821 123.157 101.197 124.605 101.197 126.323C101.197 128.313 100.715 129.956 99.7503 131.252C98.7856 132.549 97.4892 133.529 95.8611 134.192C94.2331 134.825 92.4242 135.142 90.4344 135.142Z" fill="#4E493B"/>
<path d="M59.6725 135.142C55.8436 135.142 52.9644 133.996 51.0349 131.705C49.1054 129.383 48.1406 126.293 48.1406 122.434V108.912C48.1406 108.581 48.0954 108.083 48.005 107.42C47.9145 106.726 47.809 106.018 47.6884 105.294C47.598 104.571 47.5075 104.013 47.4171 103.621L49.2712 105.475L44.0706 104.706L44.2967 102.355C44.8695 102.385 45.5026 102.415 46.196 102.445C46.8895 102.475 47.5377 102.506 48.1406 102.536C48.7738 102.566 49.226 102.581 49.4973 102.581C50.04 102.581 50.7184 102.566 51.5324 102.536C52.3765 102.506 53.2056 102.475 54.0196 102.445C54.8336 102.415 55.4818 102.385 55.9642 102.355L56.1451 104.933L50.9897 105.385L52.6629 103.621C52.6328 103.953 52.5725 104.495 52.482 105.249C52.4218 106.003 52.3615 106.832 52.3012 107.736C52.2409 108.641 52.2107 109.485 52.2107 110.269V122.434C52.2107 124.363 52.4971 126.082 53.0699 127.589C53.6428 129.097 54.5171 130.288 55.6929 131.162C56.8687 132.006 58.3309 132.428 60.0795 132.428C61.9186 132.428 63.426 131.991 64.6018 131.117C65.8078 130.242 66.7122 129.052 67.3152 127.544C67.9182 126.037 68.2197 124.333 68.2197 122.434V108.912C68.2197 108.671 68.1895 108.294 68.1292 107.782C68.0689 107.269 67.9936 106.726 67.9031 106.154C67.8127 105.551 67.7222 105.023 67.6318 104.571C67.5715 104.088 67.5263 103.772 67.4961 103.621L69.4859 105.52L64.1948 104.706L64.4209 102.355C65.2651 102.385 66.1545 102.43 67.0891 102.491C68.0237 102.551 68.7171 102.581 69.1694 102.581C70.1341 102.581 71.1441 102.551 72.1993 102.491C73.2545 102.43 74.2042 102.385 75.0484 102.355L75.2292 104.933L70.0738 105.385L71.7471 103.621C71.7169 103.953 71.6566 104.495 71.5662 105.249C71.5059 106.003 71.4456 106.832 71.3853 107.736C71.325 108.641 71.2948 109.485 71.2948 110.269V122.434C71.2948 126.293 70.315 129.383 68.3553 131.705C66.4258 133.996 63.5316 135.142 59.6725 135.142Z" fill="#4E493B"/>
<path d="M0.226116 134.689L0 132.473L5.11021 131.433L3.07517 133.468C3.10532 133.318 3.18069 133.031 3.30128 132.609C3.45203 132.157 3.60277 131.644 3.75351 131.072C3.90426 130.499 4.03993 129.971 4.16052 129.489C4.28112 128.976 4.34141 128.599 4.34141 128.358L5.51721 108.641C5.54736 108.309 5.53229 107.812 5.47199 107.149C5.44184 106.485 5.39662 105.807 5.33632 105.113C5.27602 104.42 5.21573 103.877 5.15543 103.485L6.91913 105.475L1.58281 104.706L1.80892 102.355C2.38175 102.385 3.01487 102.415 3.70829 102.445C4.40171 102.475 5.04991 102.506 5.65288 102.536C6.28601 102.566 6.73824 102.581 7.00958 102.581H10.4013L11.2605 103.531C11.562 104.375 11.8786 105.294 12.2102 106.289C12.5419 107.284 12.8434 108.174 13.1147 108.957C13.386 109.741 13.5669 110.269 13.6574 110.54L20.3504 128.132H19.2198L26.0033 110.224C26.1239 109.982 26.3198 109.485 26.5912 108.731C26.8625 107.978 27.164 107.118 27.4956 106.154C27.8574 105.189 28.174 104.299 28.4453 103.485L29.3498 102.581H30.2542C31.43 102.581 32.6209 102.551 33.8269 102.491C35.063 102.43 36.2388 102.385 37.3543 102.355L37.5351 104.933L32.3345 105.385L33.9173 103.983C33.8871 105.189 33.857 106.395 33.8269 107.601C33.7967 108.807 33.7967 109.621 33.8269 110.043L35.1383 127.001C35.1685 127.212 35.2288 127.604 35.3192 128.177C35.4097 128.72 35.5152 129.338 35.6358 130.031C35.7865 130.695 35.9222 131.343 36.0428 131.976C36.1634 132.609 36.2689 133.107 36.3593 133.468L34.46 131.614L39.7511 132.066L39.4345 134.463H33.646C33.2842 134.463 32.7415 134.478 32.0179 134.508C31.3245 134.539 30.5859 134.569 29.802 134.599C29.0181 134.629 28.2795 134.659 27.5861 134.689L27.36 132.473L32.4249 131.433L30.5708 133.468C30.6311 133.197 30.7065 132.73 30.7969 132.066C30.9175 131.373 31.0079 130.68 31.0682 129.986C31.1587 129.263 31.1888 128.72 31.1587 128.358L29.7568 106.289L30.3899 106.38L19.8077 134.463H18.3606L7.77837 106.38L8.41149 106.289L7.23569 127.001C7.20554 127.363 7.20554 127.876 7.23569 128.539C7.26584 129.172 7.29599 129.835 7.32614 130.529C7.38643 131.222 7.44673 131.84 7.50703 132.383C7.56733 132.926 7.61255 133.287 7.6427 133.468L5.92422 131.614L11.1701 132.066L10.8535 134.463H5.69811C5.39662 134.463 4.92931 134.478 4.29619 134.508C3.66307 134.539 2.96965 134.569 2.21593 134.599C1.49236 134.629 0.82909 134.659 0.226116 134.689Z" fill="#4E493B"/>
<path fill-rule="evenodd" clip-rule="evenodd" d="M124.249 37.3226C124.038 37.1902 123.759 37.2545 123.626 37.4663L104.918 67.382L86.2113 37.4663C86.0789 37.2546 85.7999 37.1902 85.5881 37.3227L75.3632 43.7165C75.1514 43.8489 75.0871 44.1279 75.2195 44.3397L100.875 85.3674C101.007 85.5791 101.286 85.6435 101.498 85.511L104.919 83.3721L108.338 85.5106C108.55 85.643 108.829 85.5787 108.961 85.367L134.618 44.34C134.75 44.1282 134.686 43.8492 134.474 43.7168L124.249 37.3226Z" fill="url(#paint0_linear_646_7744)"/>
<path d="M73.4121 37.9873C73.4121 37.4878 73.8171 37.0829 74.3166 37.0829H85.4716C85.9711 37.0829 86.3761 37.4878 86.3761 37.9873V85.4716C86.3761 85.9711 85.9711 86.376 85.4716 86.376H74.3166C73.8171 86.376 73.4121 85.9711 73.4121 85.4716V37.9873Z" fill="#BAAE8D"/>
<path d="M145.468 18.5415C145.967 18.5415 146.372 18.9464 146.372 19.446L146.372 30.601C146.372 31.1005 145.967 31.5055 145.468 31.5055L64.5183 31.5054C64.0188 31.5054 63.6139 31.1005 63.6139 30.601L63.6139 19.446C63.6139 18.9464 64.0188 18.5415 64.5183 18.5415L145.468 18.5415Z" fill="#BAAE8D"/>
<path d="M153.608 -3.95354e-08C154.107 -1.77006e-08 154.512 0.404941 154.512 0.904461L154.512 12.0595C154.512 12.559 154.107 12.9639 153.608 12.9639L56.3782 12.9639C55.8786 12.9639 55.4737 12.559 55.4737 12.0595L55.4737 0.904457C55.4737 0.404937 55.8786 -4.31141e-06 56.3782 -4.28958e-06L153.608 -3.95354e-08Z" fill="#BAAE8D"/>
<path d="M98.4355 45.0723C98.4355 44.5728 98.8405 44.1678 99.34 44.1678H110.495C110.995 44.1678 111.399 44.5728 111.399 45.0723V85.4716C111.399 85.9711 110.995 86.376 110.495 86.376H99.34C98.8405 86.376 98.4355 85.9711 98.4355 85.4716V45.0723Z" fill="#BAAE8D"/>
<path d="M123.459 37.9873C123.459 37.4878 123.864 37.0829 124.363 37.0829H135.518C136.018 37.0829 136.423 37.4878 136.423 37.9873V85.4716C136.423 85.9711 136.018 86.376 135.518 86.376H124.363C123.864 86.376 123.459 85.9711 123.459 85.4716V37.9873Z" fill="#BAAE8D"/>
<defs>
<linearGradient id="paint0_linear_646_7744" x1="104.826" y1="37.2538" x2="104.826" y2="85.5803" gradientUnits="userSpaceOnUse">
<stop stop-color="#BAAE8D" stop-opacity="0.76"/>
<stop offset="1" stop-color="#BAAE8D" stop-opacity="0"/>
</linearGradient>
</defs>
</svg>
